<svg width="32" height="32" viewBox="0 0 32 32" fill="none" xmlns="http://www.w3.org/2000/svg">
  <rect width="32" height="32" fill="#181818" rx="4"/>
  <g transform="translate(6, 6) scale(0.75)">
    <path fill="#C3AB8F" d="M16.85.14C16.2.07 15.55 0 14.8 0 7.91 0 1.74 5.4 1.74 12.64c0 7.18 6.17 12.65 13.07 12.65a9.9 9.9 0 0 0 2.04-.21c-5.96-.78-10.97-5.26-10.97-12.44C5.88 5.47 10.89 1 16.85.14Zm10.32 11.8h4.21C30.95 5.03 24.91 0 18.3 0c-.72 0-1.38.07-2.1.14C22 1 26.88 5.2 27.17 11.94Zm-8.87 13a21 21 0 0 0-2.1.14c6.6.78 12.2 5.75 12.2 13.42 0 7.6-5.52 12.5-12.13 13.36.65.07 1.3.14 2.03.14 7.49 0 14.24-5.83 14.24-13.5 0-7.74-6.75-13.57-14.24-13.57ZM4.71 39.2H.5C.94 46.53 7.55 52 14.81 52c.73 0 1.39-.07 2.11-.14-6.47-.78-11.84-5.47-12.2-12.65Z"/>
  </g>
</svg>
